<?xml version="1.0" encoding="UTF-8" standalone="no"?>
<!DOCTYPE svg PUBLIC "-//W3C//DTD SVG 1.1//EN"
 "http://www.w3.org/Graphics/SVG/1.1/DTD/svg11.dtd">
<!-- Generated by graphviz version 2.40.1 (20161225.0304)
 -->
<!-- Title: G Pages: 1 -->
<svg width="97pt" height="68pt"
 viewBox="0.00 0.00 97.33 68.00" xmlns="http://www.w3.org/2000/svg" xmlns:xlink="http://www.w3.org/1999/xlink">
<g id="graph0" class="graph" transform="scale(1 1) rotate(0) translate(21.6 46.4)">
<title>G</title>
<polygon fill="#111111" stroke="transparent" points="-21.6,21.6 -21.6,-46.4 75.729,-46.4 75.729,21.6 -21.6,21.6"/>
<!-- app.ts -->
<g id="node1" class="node">
<title>app.ts</title>
<path fill="none" stroke="#cfffac" d="M45.9931,-24.7008C45.9931,-24.7008 8.1359,-24.7008 8.1359,-24.7008 4.0356,-24.7008 -.0647,-20.6005 -.0647,-16.5003 -.0647,-16.5003 -.0647,-8.2997 -.0647,-8.2997 -.0647,-4.1995 4.0356,-.0992 8.1359,-.0992 8.1359,-.0992 45.9931,-.0992 45.9931,-.0992 50.0934,-.0992 54.1937,-4.1995 54.1937,-8.2997 54.1937,-8.2997 54.1937,-16.5003 54.1937,-16.5003 54.1937,-20.6005 50.0934,-24.7008 45.9931,-24.7008"/>
<text text-anchor="middle" x="27.0645" y="-8.2" font-family="Arial" font-size="14.00" fill="#cfffac">app.ts</text>
</g>
</g>
</svg>
